<svg color-interpolation="auto" stroke="#000" stroke-linecap="square" width="380" stroke-miterlimit="10" viewBox="310 80 380 380" height="380" xmlns="http://www.w3.org/2000/svg" font-family="'Dialog'" font-size="12">
  <defs>
    <clipPath id="a">
      <path d="M0 0v40h120V0z"/>
    </clipPath>
    <clipPath id="b">
      <path d="M0 0v140h30V0z"/>
    </clipPath>
    <clipPath id="c">
      <path d="M0 0v70h110V0z"/>
    </clipPath>
    <clipPath id="d">
      <path d="M0 0v30h130V0z"/>
    </clipPath>
    <clipPath id="e">
      <path d="M0 0v70h120V0z"/>
    </clipPath>
    <clipPath id="f">
      <path d="M0 0v80h80V0z"/>
    </clipPath>
    <clipPath id="g">
      <path d="M0 0v70h140V0z"/>
    </clipPath>
  </defs>
  <rect x=".5" y=".5" clip-path="url(#a)" width="118.5" rx="8" ry="8" height="38.5" fill="none" transform="translate(440 100)" stroke="none"/>
  <g transform="translate(440 100)">
    <rect x=".5" y=".5" clip-path="url(#a)" fill="none" width="118.5" rx="8" ry="8" height="38.5"/>
    <text x="41" font-size="14" y="25.1" clip-path="url(#a)" font-family="sans-serif" stroke="none">
      State
    </text>
  </g>
  <rect x=".5" y=".5" clip-path="url(#a)" width="118.5" rx="8" ry="8" height="38.5" fill="none" transform="translate(440 240)" stroke="none"/>
  <g transform="translate(440 240)">
    <rect x=".5" y=".5" clip-path="url(#a)" fill="none" width="118.5" rx="8" ry="8" height="38.5"/>
    <text x="12" font-size="14" y="25.1" clip-path="url(#a)" font-family="sans-serif" stroke="none">
      Utils/Services
    </text>
  </g>
  <rect x=".5" y=".5" clip-path="url(#a)" width="118.5" rx="8" ry="8" height="38.5" fill="none" transform="translate(550 170)" stroke="none"/>
  <g transform="translate(550 170)">
    <rect x=".5" y=".5" clip-path="url(#a)" fill="none" width="118.5" rx="8" ry="8" height="38.5"/>
    <text x="27" font-size="14" y="25.1" clip-path="url(#a)" font-family="sans-serif" stroke="none">
      Selectors
    </text>
  </g>
  <rect x=".5" y=".5" clip-path="url(#a)" width="118.5" rx="8" ry="8" height="38.5" fill="none" transform="translate(550 320)" stroke="none"/>
  <g transform="translate(550 320)">
    <rect x=".5" y=".5" clip-path="url(#a)" fill="none" width="118.5" rx="8" ry="8" height="38.5"/>
    <text x="25" font-size="14" y="25.1" clip-path="url(#a)" font-family="sans-serif" stroke="none">
      Container
    </text>
  </g>
  <rect x=".5" y=".5" clip-path="url(#a)" width="118.5" rx="8" ry="8" height="38.5" fill="none" transform="translate(440 400)" stroke="none"/>
  <g transform="translate(440 400)">
    <rect x=".5" y=".5" clip-path="url(#a)" fill="none" width="118.5" rx="8" ry="8" height="38.5"/>
    <text x="15" font-size="14" y="25.1" clip-path="url(#a)" font-family="sans-serif" stroke="none">
      Components
    </text>
  </g>
  <rect x=".5" y=".5" clip-path="url(#a)" width="118.5" rx="8" ry="8" height="38.5" fill="none" transform="translate(330 320)" stroke="none"/>
  <g transform="translate(330 320)">
    <rect x=".5" y=".5" clip-path="url(#a)" fill="none" width="118.5" rx="8" ry="8" height="38.5"/>
    <text x="34" font-size="14" y="25.1" clip-path="url(#a)" font-family="sans-serif" stroke="none">
      Actions
    </text>
  </g>
  <rect x=".5" y=".5" clip-path="url(#a)" width="118.5" rx="8" ry="8" height="38.5" fill="none" transform="translate(330 170)" stroke="none"/>
  <g transform="translate(330 170)">
    <rect x=".5" y=".5" clip-path="url(#a)" fill="none" width="118.5" rx="8" ry="8" height="38.5"/>
    <text x="30" font-size="14" y="25.1" clip-path="url(#a)" font-family="sans-serif" stroke="none">
      Reducer
    </text>
  </g>
  <path d="M10.5 11.5v109M4 22.3L10.5 11 17 22.3" clip-path="url(#b)" transform="translate(380 200)" fill="none"/>
  <path d="M11.4 50l79-39.5M24 51l-13-.7 7-11" clip-path="url(#c)" transform="translate(400 270)" fill="none"/>
  <path d="M11.5 10.5h99M22.3 17L11 10.5 22.3 4" clip-path="url(#d)" transform="translate(440 330)" fill="none"/>
  <path d="M99.6 50l-89-39.5m81.8 29.3l7.6 10.5-13 1.4" clip-path="url(#e)" transform="translate(500 270)" fill="none"/>
  <path d="M59.8 59.8L10.5 10.5m46.3 37L60 60l-12.3-3" clip-path="url(#f)" transform="translate(550 110)" fill="none"/>
  <path d="M11.4 50.2l109-39.7m-96.6 42l-12.8-2 8.3-10" clip-path="url(#g)" transform="translate(490 350)" fill="none"/>
  <path d="M10.5 119.5v-109m6.5 98.2L10.5 120 4 108.7" clip-path="url(#b)" transform="translate(600 200)" fill="none"/>
  <path d="M59.8 11.2L10.5 60.5m37-46.3L60 11l-3 12.3" clip-path="url(#f)" transform="translate(380 110)" fill="none"/>
</svg>
